<?xml version="1.0" encoding="utf-8" standalone="no"?>
<!DOCTYPE svg PUBLIC "-//W3C//DTD SVG 1.1//EN"
  "http://www.w3.org/Graphics/SVG/1.1/DTD/svg11.dtd">
<!-- Created with matplotlib (https://matplotlib.org/) -->
<svg height="288pt" version="1.1" viewBox="0 0 432 288" width="432pt" xmlns="http://www.w3.org/2000/svg" xmlns:xlink="http://www.w3.org/1999/xlink">
 <defs>
  <style type="text/css">
*{stroke-linecap:butt;stroke-linejoin:round;white-space:pre;}
  </style>
 </defs>
 <g id="figure_1">
  <g id="patch_1">
   <path d="M 0 288 
L 432 288 
L 432 0 
L 0 0 
z
" style="fill:#ffffff;"/>
  </g>
  <g id="axes_1">
   <g id="patch_2">
    <path d="M 54 252 
L 388.8 252 
L 388.8 34.56 
L 54 34.56 
z
" style="fill:#ffffff;"/>
   </g>
   <g id="matplotlib.axis_1">
    <g id="xtick_1">
     <g id="text_1">
      <!-- 0.0 -->
      <defs>
       <path d="M 4.15625 35.296875 
Q 4.15625 48 6.765625 55.734375 
Q 9.375 63.484375 14.515625 67.671875 
Q 19.671875 71.875 27.484375 71.875 
Q 33.25 71.875 37.59375 69.546875 
Q 41.9375 67.234375 44.765625 62.859375 
Q 47.609375 58.5 49.21875 52.21875 
Q 50.828125 45.953125 50.828125 35.296875 
Q 50.828125 22.703125 48.234375 14.96875 
Q 45.65625 7.234375 40.5 3 
Q 35.359375 -1.21875 27.484375 -1.21875 
Q 17.140625 -1.21875 11.234375 6.203125 
Q 4.15625 15.140625 4.15625 35.296875 
z
M 13.1875 35.296875 
Q 13.1875 17.671875 17.3125 11.828125 
Q 21.4375 6 27.484375 6 
Q 33.546875 6 37.671875 11.859375 
Q 41.796875 17.71875 41.796875 35.296875 
Q 41.796875 52.984375 37.671875 58.78125 
Q 33.546875 64.59375 27.390625 64.59375 
Q 21.34375 64.59375 17.71875 59.46875 
Q 13.1875 52.9375 13.1875 35.296875 
z
" id="ArialMT-48"/>
       <path d="M 9.078125 0 
L 9.078125 10.015625 
L 19.09375 10.015625 
L 19.09375 0 
z
" id="ArialMT-46"/>
      </defs>
      <g style="fill:#262626;" transform="translate(46.355 272.873594)scale(0.11 -0.11)">
       <use xlink:href="#ArialMT-48"/>
       <use x="55.615234" xlink:href="#ArialMT-46"/>
       <use x="83.398438" xlink:href="#ArialMT-48"/>
      </g>
     </g>
    </g>
    <g id="xtick_2">
     <g id="text_2">
      <!-- 0.2 -->
      <defs>
       <path d="M 50.34375 8.453125 
L 50.34375 0 
L 3.03125 0 
Q 2.9375 3.171875 4.046875 6.109375 
Q 5.859375 10.9375 9.828125 15.625 
Q 13.8125 20.3125 21.34375 26.46875 
Q 33.015625 36.03125 37.109375 41.625 
Q 41.21875 47.21875 41.21875 52.203125 
Q 41.21875 57.421875 37.46875 61 
Q 33.734375 64.59375 27.734375 64.59375 
Q 21.390625 64.59375 17.578125 60.78125 
Q 13.765625 56.984375 13.71875 50.25 
L 4.6875 51.171875 
Q 5.609375 61.28125 11.65625 66.578125 
Q 17.71875 71.875 27.9375 71.875 
Q 38.234375 71.875 44.234375 66.15625 
Q 50.25 60.453125 50.25 52 
Q 50.25 47.703125 48.484375 43.546875 
Q 46.734375 39.40625 42.65625 34.8125 
Q 38.578125 30.21875 29.109375 22.21875 
Q 21.1875 15.578125 18.9375 13.203125 
Q 16.703125 10.84375 15.234375 8.453125 
z
" id="ArialMT-50"/>
      </defs>
      <g style="fill:#262626;" transform="translate(113.315 272.873594)scale(0.11 -0.11)">
       <use xlink:href="#ArialMT-48"/>
       <use x="55.615234" xlink:href="#ArialMT-46"/>
       <use x="83.398438" xlink:href="#ArialMT-50"/>
      </g>
     </g>
    </g>
    <g id="xtick_3">
     <g id="text_3">
      <!-- 0.4 -->
      <defs>
       <path d="M 32.328125 0 
L 32.328125 17.140625 
L 1.265625 17.140625 
L 1.265625 25.203125 
L 33.9375 71.578125 
L 41.109375 71.578125 
L 41.109375 25.203125 
L 50.78125 25.203125 
L 50.78125 17.140625 
L 41.109375 17.140625 
L 41.109375 0 
z
M 32.328125 25.203125 
L 32.328125 57.46875 
L 9.90625 25.203125 
z
" id="ArialMT-52"/>
      </defs>
      <g style="fill:#262626;" transform="translate(180.275 272.873594)scale(0.11 -0.11)">
       <use xlink:href="#ArialMT-48"/>
       <use x="55.615234" xlink:href="#ArialMT-46"/>
       <use x="83.398438" xlink:href="#ArialMT-52"/>
      </g>
     </g>
    </g>
    <g id="xtick_4">
     <g id="text_4">
      <!-- 0.6 -->
      <defs>
       <path d="M 49.75 54.046875 
L 41.015625 53.375 
Q 39.84375 58.546875 37.703125 60.890625 
Q 34.125 64.65625 28.90625 64.65625 
Q 24.703125 64.65625 21.53125 62.3125 
Q 17.390625 59.28125 14.984375 53.46875 
Q 12.59375 47.65625 12.5 36.921875 
Q 15.671875 41.75 20.265625 44.09375 
Q 24.859375 46.4375 29.890625 46.4375 
Q 38.671875 46.4375 44.84375 39.96875 
Q 51.03125 33.5 51.03125 23.25 
Q 51.03125 16.5 48.125 10.71875 
Q 45.21875 4.9375 40.140625 1.859375 
Q 35.0625 -1.21875 28.609375 -1.21875 
Q 17.625 -1.21875 10.6875 6.859375 
Q 3.765625 14.9375 3.765625 33.5 
Q 3.765625 54.25 11.421875 63.671875 
Q 18.109375 71.875 29.4375 71.875 
Q 37.890625 71.875 43.28125 67.140625 
Q 48.6875 62.40625 49.75 54.046875 
z
M 13.875 23.1875 
Q 13.875 18.65625 15.796875 14.5 
Q 17.71875 10.359375 21.1875 8.171875 
Q 24.65625 6 28.46875 6 
Q 34.03125 6 38.03125 10.484375 
Q 42.046875 14.984375 42.046875 22.703125 
Q 42.046875 30.125 38.078125 34.390625 
Q 34.125 38.671875 28.125 38.671875 
Q 22.171875 38.671875 18.015625 34.390625 
Q 13.875 30.125 13.875 23.1875 
z
" id="ArialMT-54"/>
      </defs>
      <g style="fill:#262626;" transform="translate(247.235 272.873594)scale(0.11 -0.11)">
       <use xlink:href="#ArialMT-48"/>
       <use x="55.615234" xlink:href="#ArialMT-46"/>
       <use x="83.398438" xlink:href="#ArialMT-54"/>
      </g>
     </g>
    </g>
    <g id="xtick_5">
     <g id="text_5">
      <!-- 0.8 -->
      <defs>
       <path d="M 17.671875 38.8125 
Q 12.203125 40.828125 9.5625 44.53125 
Q 6.9375 48.25 6.9375 53.421875 
Q 6.9375 61.234375 12.546875 66.546875 
Q 18.171875 71.875 27.484375 71.875 
Q 36.859375 71.875 42.578125 66.421875 
Q 48.296875 60.984375 48.296875 53.171875 
Q 48.296875 48.1875 45.671875 44.5 
Q 43.0625 40.828125 37.75 38.8125 
Q 44.34375 36.671875 47.78125 31.875 
Q 51.21875 27.09375 51.21875 20.453125 
Q 51.21875 11.28125 44.71875 5.03125 
Q 38.234375 -1.21875 27.640625 -1.21875 
Q 17.046875 -1.21875 10.546875 5.046875 
Q 4.046875 11.328125 4.046875 20.703125 
Q 4.046875 27.6875 7.59375 32.390625 
Q 11.140625 37.109375 17.671875 38.8125 
z
M 15.921875 53.71875 
Q 15.921875 48.640625 19.1875 45.40625 
Q 22.46875 42.1875 27.6875 42.1875 
Q 32.765625 42.1875 36.015625 45.375 
Q 39.265625 48.578125 39.265625 53.21875 
Q 39.265625 58.0625 35.90625 61.359375 
Q 32.5625 64.65625 27.59375 64.65625 
Q 22.5625 64.65625 19.234375 61.421875 
Q 15.921875 58.203125 15.921875 53.71875 
z
M 13.09375 20.65625 
Q 13.09375 16.890625 14.875 13.375 
Q 16.65625 9.859375 20.171875 7.921875 
Q 23.6875 6 27.734375 6 
Q 34.03125 6 38.125 10.046875 
Q 42.234375 14.109375 42.234375 20.359375 
Q 42.234375 26.703125 38.015625 30.859375 
Q 33.796875 35.015625 27.4375 35.015625 
Q 21.234375 35.015625 17.15625 30.90625 
Q 13.09375 26.8125 13.09375 20.65625 
z
" id="ArialMT-56"/>
      </defs>
      <g style="fill:#262626;" transform="translate(314.195 272.873594)scale(0.11 -0.11)">
       <use xlink:href="#ArialMT-48"/>
       <use x="55.615234" xlink:href="#ArialMT-46"/>
       <use x="83.398438" xlink:href="#ArialMT-56"/>
      </g>
     </g>
    </g>
    <g id="xtick_6">
     <g id="text_6">
      <!-- 1.0 -->
      <defs>
       <path d="M 37.25 0 
L 28.46875 0 
L 28.46875 56 
Q 25.296875 52.984375 20.140625 49.953125 
Q 14.984375 46.921875 10.890625 45.40625 
L 10.890625 53.90625 
Q 18.265625 57.375 23.78125 62.296875 
Q 29.296875 67.234375 31.59375 71.875 
L 37.25 71.875 
z
" id="ArialMT-49"/>
      </defs>
      <g style="fill:#262626;" transform="translate(381.155 272.873594)scale(0.11 -0.11)">
       <use xlink:href="#ArialMT-49"/>
       <use x="55.615234" xlink:href="#ArialMT-46"/>
       <use x="83.398438" xlink:href="#ArialMT-48"/>
      </g>
     </g>
    </g>
    <g id="text_7">
     <!-- False Positive Rate -->
     <defs>
      <path d="M 8.203125 0 
L 8.203125 71.578125 
L 56.5 71.578125 
L 56.5 63.140625 
L 17.671875 63.140625 
L 17.671875 40.96875 
L 51.265625 40.96875 
L 51.265625 32.515625 
L 17.671875 32.515625 
L 17.671875 0 
z
" id="ArialMT-70"/>
      <path d="M 40.4375 6.390625 
Q 35.546875 2.25 31.03125 0.53125 
Q 26.515625 -1.171875 21.34375 -1.171875 
Q 12.796875 -1.171875 8.203125 3 
Q 3.609375 7.171875 3.609375 13.671875 
Q 3.609375 17.484375 5.34375 20.625 
Q 7.078125 23.78125 9.890625 25.6875 
Q 12.703125 27.59375 16.21875 28.5625 
Q 18.796875 29.25 24.03125 29.890625 
Q 34.671875 31.15625 39.703125 32.90625 
Q 39.75 34.71875 39.75 35.203125 
Q 39.75 40.578125 37.25 42.78125 
Q 33.890625 45.75 27.25 45.75 
Q 21.046875 45.75 18.09375 43.578125 
Q 15.140625 41.40625 13.71875 35.890625 
L 5.125 37.0625 
Q 6.296875 42.578125 8.984375 45.96875 
Q 11.671875 49.359375 16.75 51.1875 
Q 21.828125 53.03125 28.515625 53.03125 
Q 35.15625 53.03125 39.296875 51.46875 
Q 43.453125 49.90625 45.40625 47.53125 
Q 47.359375 45.171875 48.140625 41.546875 
Q 48.578125 39.3125 48.578125 33.453125 
L 48.578125 21.734375 
Q 48.578125 9.46875 49.140625 6.21875 
Q 49.703125 2.984375 51.375 0 
L 42.1875 0 
Q 40.828125 2.734375 40.4375 6.390625 
z
M 39.703125 26.03125 
Q 34.90625 24.078125 25.34375 22.703125 
Q 19.921875 21.921875 17.671875 20.9375 
Q 15.4375 19.96875 14.203125 18.09375 
Q 12.984375 16.21875 12.984375 13.921875 
Q 12.984375 10.40625 15.640625 8.0625 
Q 18.3125 5.71875 23.4375 5.71875 
Q 28.515625 5.71875 32.46875 7.9375 
Q 36.421875 10.15625 38.28125 14.015625 
Q 39.703125 17 39.703125 22.796875 
z
" id="ArialMT-97"/>
      <path d="M 6.390625 0 
L 6.390625 71.578125 
L 15.1875 71.578125 
L 15.1875 0 
z
" id="ArialMT-108"/>
      <path d="M 3.078125 15.484375 
L 11.765625 16.84375 
Q 12.5 11.625 15.84375 8.84375 
Q 19.1875 6.0625 25.203125 6.0625 
Q 31.25 6.0625 34.171875 8.515625 
Q 37.109375 10.984375 37.109375 14.3125 
Q 37.109375 17.28125 34.515625 19 
Q 32.71875 20.171875 25.53125 21.96875 
Q 15.875 24.421875 12.140625 26.203125 
Q 8.40625 27.984375 6.46875 31.125 
Q 4.546875 34.28125 4.546875 38.09375 
Q 4.546875 41.546875 6.125 44.5 
Q 7.71875 47.46875 10.453125 49.421875 
Q 12.5 50.921875 16.03125 51.96875 
Q 19.578125 53.03125 23.640625 53.03125 
Q 29.734375 53.03125 34.34375 51.265625 
Q 38.96875 49.515625 41.15625 46.5 
Q 43.359375 43.5 44.1875 38.484375 
L 35.59375 37.3125 
Q 35.015625 41.3125 32.203125 43.546875 
Q 29.390625 45.796875 24.265625 45.796875 
Q 18.21875 45.796875 15.625 43.796875 
Q 13.03125 41.796875 13.03125 39.109375 
Q 13.03125 37.40625 14.109375 36.03125 
Q 15.1875 34.625 17.484375 33.6875 
Q 18.796875 33.203125 25.25 31.453125 
Q 34.578125 28.953125 38.25 27.359375 
Q 41.9375 25.78125 44.03125 22.75 
Q 46.140625 19.734375 46.140625 15.234375 
Q 46.140625 10.84375 43.578125 6.953125 
Q 41.015625 3.078125 36.171875 0.953125 
Q 31.34375 -1.171875 25.25 -1.171875 
Q 15.140625 -1.171875 9.84375 3.03125 
Q 4.546875 7.234375 3.078125 15.484375 
z
" id="ArialMT-115"/>
      <path d="M 42.09375 16.703125 
L 51.171875 15.578125 
Q 49.03125 7.625 43.21875 3.21875 
Q 37.40625 -1.171875 28.375 -1.171875 
Q 17 -1.171875 10.328125 5.828125 
Q 3.65625 12.84375 3.65625 25.484375 
Q 3.65625 38.578125 10.390625 45.796875 
Q 17.140625 53.03125 27.875 53.03125 
Q 38.28125 53.03125 44.875 45.953125 
Q 51.46875 38.875 51.46875 26.03125 
Q 51.46875 25.25 51.421875 23.6875 
L 12.75 23.6875 
Q 13.234375 15.140625 17.578125 10.59375 
Q 21.921875 6.0625 28.421875 6.0625 
Q 33.25 6.0625 36.671875 8.59375 
Q 40.09375 11.140625 42.09375 16.703125 
z
M 13.234375 30.90625 
L 42.1875 30.90625 
Q 41.609375 37.453125 38.875 40.71875 
Q 34.671875 45.796875 27.984375 45.796875 
Q 21.921875 45.796875 17.796875 41.75 
Q 13.671875 37.703125 13.234375 30.90625 
z
" id="ArialMT-101"/>
      <path id="ArialMT-32"/>
      <path d="M 7.71875 0 
L 7.71875 71.578125 
L 34.71875 71.578125 
Q 41.84375 71.578125 45.609375 70.90625 
Q 50.875 70.015625 54.4375 67.546875 
Q 58.015625 65.09375 60.1875 60.640625 
Q 62.359375 56.203125 62.359375 50.875 
Q 62.359375 41.75 56.546875 35.421875 
Q 50.734375 29.109375 35.546875 29.109375 
L 17.1875 29.109375 
L 17.1875 0 
z
M 17.1875 37.546875 
L 35.6875 37.546875 
Q 44.875 37.546875 48.734375 40.96875 
Q 52.59375 44.390625 52.59375 50.59375 
Q 52.59375 55.078125 50.3125 58.265625 
Q 48.046875 61.46875 44.34375 62.5 
Q 41.9375 63.140625 35.5 63.140625 
L 17.1875 63.140625 
z
" id="ArialMT-80"/>
      <path d="M 3.328125 25.921875 
Q 3.328125 40.328125 11.328125 47.265625 
Q 18.015625 53.03125 27.640625 53.03125 
Q 38.328125 53.03125 45.109375 46.015625 
Q 51.90625 39.015625 51.90625 26.65625 
Q 51.90625 16.65625 48.90625 10.90625 
Q 45.90625 5.171875 40.15625 2 
Q 34.421875 -1.171875 27.640625 -1.171875 
Q 16.75 -1.171875 10.03125 5.8125 
Q 3.328125 12.796875 3.328125 25.921875 
z
M 12.359375 25.921875 
Q 12.359375 15.96875 16.703125 11.015625 
Q 21.046875 6.0625 27.640625 6.0625 
Q 34.1875 6.0625 38.53125 11.03125 
Q 42.875 16.015625 42.875 26.21875 
Q 42.875 35.84375 38.5 40.796875 
Q 34.125 45.75 27.640625 45.75 
Q 21.046875 45.75 16.703125 40.8125 
Q 12.359375 35.890625 12.359375 25.921875 
z
" id="ArialMT-111"/>
      <path d="M 6.640625 61.46875 
L 6.640625 71.578125 
L 15.4375 71.578125 
L 15.4375 61.46875 
z
M 6.640625 0 
L 6.640625 51.859375 
L 15.4375 51.859375 
L 15.4375 0 
z
" id="ArialMT-105"/>
      <path d="M 25.78125 7.859375 
L 27.046875 0.09375 
Q 23.34375 -0.6875 20.40625 -0.6875 
Q 15.625 -0.6875 12.984375 0.828125 
Q 10.359375 2.34375 9.28125 4.8125 
Q 8.203125 7.28125 8.203125 15.1875 
L 8.203125 45.015625 
L 1.765625 45.015625 
L 1.765625 51.859375 
L 8.203125 51.859375 
L 8.203125 64.703125 
L 16.9375 69.96875 
L 16.9375 51.859375 
L 25.78125 51.859375 
L 25.78125 45.015625 
L 16.9375 45.015625 
L 16.9375 14.703125 
Q 16.9375 10.9375 17.40625 9.859375 
Q 17.875 8.796875 18.921875 8.15625 
Q 19.96875 7.515625 21.921875 7.515625 
Q 23.390625 7.515625 25.78125 7.859375 
z
" id="ArialMT-116"/>
      <path d="M 21 0 
L 1.265625 51.859375 
L 10.546875 51.859375 
L 21.6875 20.796875 
Q 23.484375 15.765625 25 10.359375 
Q 26.171875 14.453125 28.265625 20.21875 
L 39.796875 51.859375 
L 48.828125 51.859375 
L 29.203125 0 
z
" id="ArialMT-118"/>
      <path d="M 7.859375 0 
L 7.859375 71.578125 
L 39.59375 71.578125 
Q 49.171875 71.578125 54.140625 69.640625 
Q 59.125 67.71875 62.109375 62.828125 
Q 65.09375 57.953125 65.09375 52.046875 
Q 65.09375 44.4375 60.15625 39.203125 
Q 55.21875 33.984375 44.921875 32.5625 
Q 48.6875 30.765625 50.640625 29 
Q 54.78125 25.203125 58.5 19.484375 
L 70.953125 0 
L 59.03125 0 
L 49.5625 14.890625 
Q 45.40625 21.34375 42.71875 24.75 
Q 40.046875 28.171875 37.921875 29.53125 
Q 35.796875 30.90625 33.59375 31.453125 
Q 31.984375 31.78125 28.328125 31.78125 
L 17.328125 31.78125 
L 17.328125 0 
z
M 17.328125 39.984375 
L 37.703125 39.984375 
Q 44.1875 39.984375 47.84375 41.328125 
Q 51.515625 42.671875 53.421875 45.625 
Q 55.328125 48.578125 55.328125 52.046875 
Q 55.328125 57.125 51.640625 60.390625 
Q 47.953125 63.671875 39.984375 63.671875 
L 17.328125 63.671875 
z
" id="ArialMT-82"/>
     </defs>
     <g style="fill:#262626;" transform="translate(169.71375 287.649219)scale(0.12 -0.12)">
      <use xlink:href="#ArialMT-70"/>
      <use x="61.083984" xlink:href="#ArialMT-97"/>
      <use x="116.699219" xlink:href="#ArialMT-108"/>
      <use x="138.916016" xlink:href="#ArialMT-115"/>
      <use x="188.916016" xlink:href="#ArialMT-101"/>
      <use x="244.53125" xlink:href="#ArialMT-32"/>
      <use x="272.314453" xlink:href="#ArialMT-80"/>
      <use x="339.013672" xlink:href="#ArialMT-111"/>
      <use x="394.628906" xlink:href="#ArialMT-115"/>
      <use x="444.628906" xlink:href="#ArialMT-105"/>
      <use x="466.845703" xlink:href="#ArialMT-116"/>
      <use x="494.628906" xlink:href="#ArialMT-105"/>
      <use x="516.845703" xlink:href="#ArialMT-118"/>
      <use x="566.845703" xlink:href="#ArialMT-101"/>
      <use x="622.460938" xlink:href="#ArialMT-32"/>
      <use x="650.244141" xlink:href="#ArialMT-82"/>
      <use x="722.460938" xlink:href="#ArialMT-97"/>
      <use x="778.076172" xlink:href="#ArialMT-116"/>
      <use x="805.859375" xlink:href="#ArialMT-101"/>
     </g>
    </g>
   </g>
   <g id="matplotlib.axis_2">
    <g id="ytick_1">
     <g id="text_8">
      <!-- 0.0 -->
      <g style="fill:#262626;" transform="translate(25.71 255.936797)scale(0.11 -0.11)">
       <use xlink:href="#ArialMT-48"/>
       <use x="55.615234" xlink:href="#ArialMT-46"/>
       <use x="83.398438" xlink:href="#ArialMT-48"/>
      </g>
     </g>
    </g>
    <g id="ytick_2">
     <g id="text_9">
      <!-- 0.2 -->
      <g style="fill:#262626;" transform="translate(25.71 212.448797)scale(0.11 -0.11)">
       <use xlink:href="#ArialMT-48"/>
       <use x="55.615234" xlink:href="#ArialMT-46"/>
       <use x="83.398438" xlink:href="#ArialMT-50"/>
      </g>
     </g>
    </g>
    <g id="ytick_3">
     <g id="text_10">
      <!-- 0.4 -->
      <g style="fill:#262626;" transform="translate(25.71 168.960797)scale(0.11 -0.11)">
       <use xlink:href="#ArialMT-48"/>
       <use x="55.615234" xlink:href="#ArialMT-46"/>
       <use x="83.398438" xlink:href="#ArialMT-52"/>
      </g>
     </g>
    </g>
    <g id="ytick_4">
     <g id="text_11">
      <!-- 0.6 -->
      <g style="fill:#262626;" transform="translate(25.71 125.472797)scale(0.11 -0.11)">
       <use xlink:href="#ArialMT-48"/>
       <use x="55.615234" xlink:href="#ArialMT-46"/>
       <use x="83.398438" xlink:href="#ArialMT-54"/>
      </g>
     </g>
    </g>
    <g id="ytick_5">
     <g id="text_12">
      <!-- 0.8 -->
      <g style="fill:#262626;" transform="translate(25.71 81.984797)scale(0.11 -0.11)">
       <use xlink:href="#ArialMT-48"/>
       <use x="55.615234" xlink:href="#ArialMT-46"/>
       <use x="83.398438" xlink:href="#ArialMT-56"/>
      </g>
     </g>
    </g>
    <g id="ytick_6">
     <g id="text_13">
      <!-- 1.0 -->
      <g style="fill:#262626;" transform="translate(25.71 38.496797)scale(0.11 -0.11)">
       <use xlink:href="#ArialMT-49"/>
       <use x="55.615234" xlink:href="#ArialMT-46"/>
       <use x="83.398438" xlink:href="#ArialMT-48"/>
      </g>
     </g>
    </g>
    <g id="text_14">
     <!-- True Postive Rate -->
     <defs>
      <path d="M 25.921875 0 
L 25.921875 63.140625 
L 2.34375 63.140625 
L 2.34375 71.578125 
L 59.078125 71.578125 
L 59.078125 63.140625 
L 35.40625 63.140625 
L 35.40625 0 
z
" id="ArialMT-84"/>
      <path d="M 6.5 0 
L 6.5 51.859375 
L 14.40625 51.859375 
L 14.40625 44 
Q 17.4375 49.515625 20 51.265625 
Q 22.5625 53.03125 25.640625 53.03125 
Q 30.078125 53.03125 34.671875 50.203125 
L 31.640625 42.046875 
Q 28.421875 43.953125 25.203125 43.953125 
Q 22.3125 43.953125 20.015625 42.21875 
Q 17.71875 40.484375 16.75 37.40625 
Q 15.28125 32.71875 15.28125 27.15625 
L 15.28125 0 
z
" id="ArialMT-114"/>
      <path d="M 40.578125 0 
L 40.578125 7.625 
Q 34.515625 -1.171875 24.125 -1.171875 
Q 19.53125 -1.171875 15.546875 0.578125 
Q 11.578125 2.34375 9.640625 5 
Q 7.71875 7.671875 6.9375 11.53125 
Q 6.390625 14.109375 6.390625 19.734375 
L 6.390625 51.859375 
L 15.1875 51.859375 
L 15.1875 23.09375 
Q 15.1875 16.21875 15.71875 13.8125 
Q 16.546875 10.359375 19.234375 8.375 
Q 21.921875 6.390625 25.875 6.390625 
Q 29.828125 6.390625 33.296875 8.421875 
Q 36.765625 10.453125 38.203125 13.9375 
Q 39.65625 17.4375 39.65625 24.078125 
L 39.65625 51.859375 
L 48.4375 51.859375 
L 48.4375 0 
z
" id="ArialMT-117"/>
     </defs>
     <g style="fill:#262626;" transform="translate(19.325 191.295)rotate(-90)scale(0.12 -0.12)">
      <use xlink:href="#ArialMT-84"/>
      <use x="61.037109" xlink:href="#ArialMT-114"/>
      <use x="94.337891" xlink:href="#ArialMT-117"/>
      <use x="149.953125" xlink:href="#ArialMT-101"/>
      <use x="205.568359" xlink:href="#ArialMT-32"/>
      <use x="233.351562" xlink:href="#ArialMT-80"/>
      <use x="300.050781" xlink:href="#ArialMT-111"/>
      <use x="355.666016" xlink:href="#ArialMT-115"/>
      <use x="405.666016" xlink:href="#ArialMT-116"/>
      <use x="433.449219" xlink:href="#ArialMT-105"/>
      <use x="455.666016" xlink:href="#ArialMT-118"/>
      <use x="505.666016" xlink:href="#ArialMT-101"/>
      <use x="561.28125" xlink:href="#ArialMT-32"/>
      <use x="589.064453" xlink:href="#ArialMT-82"/>
      <use x="661.28125" xlink:href="#ArialMT-97"/>
      <use x="716.896484" xlink:href="#ArialMT-116"/>
      <use x="744.679688" xlink:href="#ArialMT-101"/>
     </g>
    </g>
   </g>
   <g id="line2d_1">
    <path clip-path="url(#p22f410941b)" d="M 54 252 
L 54.109333 121.251765 
L 54.324093 82.347059 
L 54.734091 61.74 
L 55.472086 46.817647 
L 55.819608 44.774706 
L 55.979702 44.330588 
L 56.413128 41.310588 
L 56.647412 39.978235 
L 56.768459 39.889412 
L 57.34636 38.823529 
L 57.510359 38.290588 
L 57.623596 38.201765 
L 57.709501 38.201765 
L 58.09607 37.491176 
L 58.24445 37.402353 
L 58.705209 36.691765 
L 58.826256 36.691765 
L 59.169872 36.247647 
L 59.34949 36.158824 
L 59.560346 35.892353 
L 60.298342 35.892353 
L 60.645863 35.714706 
L 62.395186 35.625882 
L 63.320608 35.270588 
L 65.01136 35.181765 
L 67.065252 34.915294 
L 75.632246 34.737647 
L 110.161839 34.648824 
L 388.8 34.56 
L 388.8 34.56 
" style="fill:none;stroke:#4c72b0;stroke-linecap:round;stroke-width:1.5;"/>
   </g>
   <g id="line2d_2">
    <path clip-path="url(#p22f410941b)" d="M 54 252 
L 54.096579 250.497227 
L 54.305834 247.543019 
L 54.635813 244.122111 
L 55.02213 241.471258 
L 55.352109 238.283699 
L 56.776653 227.558943 
L 56.913474 225.706146 
L 57.573432 222.131227 
L 57.895363 220.469777 
L 58.426549 216.703511 
L 59.046266 213.114591 
L 61.62976 199.738981 
L 61.967788 198.180205 
L 62.386298 196.812775 
L 63.319897 192.229785 
L 66.402385 180.856316 
L 68.036184 176.380668 
L 69.243424 173.11377 
L 70.354085 170.089557 
L 71.26354 168.218092 
L 72.164946 166.318625 
L 73.718262 163.425087 
L 74.4748 161.516286 
L 75.384254 159.654155 
L 76.398336 157.824692 
L 77.114633 156.984633 
L 77.597529 156.083903 
L 79.400341 153.652398 
L 80.559292 151.986281 
L 81.259492 151.22556 
L 81.959691 150.282827 
L 82.506974 149.312092 
L 83.183028 148.425363 
L 85.476785 146.003192 
L 86.973764 144.26707 
L 89.018024 141.518209 
L 92.253429 138.092634 
L 93.951614 136.286507 
L 96.961667 133.756995 
L 99.174942 131.866862 
L 100.124638 130.882126 
L 106.506916 125.356403 
L 107.633674 124.329664 
L 108.81677 123.438267 
L 111.062237 121.506131 
L 113.605491 119.728006 
L 117.452564 116.825134 
L 120.357989 115.023674 
L 123.376091 113.208213 
L 124.824779 112.148805 
L 127.714109 110.352011 
L 130.571245 108.429209 
L 133.33985 106.604414 
L 135.005841 105.745687 
L 139.770418 102.86615 
L 143.215077 101.036688 
L 144.961552 100.056619 
L 146.402192 99.053215 
L 151.39212 96.173678 
L 153.042015 95.095602 
L 154.7402 94.176204 
L 158.65166 92.416747 
L 170.015818 86.774349 
L 174.088243 84.902883 
L 185.388014 79.274486 
L 189.146556 77.323682 
L 194.957408 74.831507 
L 202.748133 71.205251 
L 222.128368 62.781323 
L 225.677656 61.353223 
L 232.969389 58.338343 
L 236.309421 56.858906 
L 245.073987 53.400662 
L 248.212813 52.037899 
L 257.758061 48.616991 
L 259.407957 48.187628 
L 260.912983 47.641589 
L 265.098084 46.52151 
L 269.39586 45.140079 
L 273.267079 43.935995 
L 277.870689 42.437889 
L 285.017553 40.627095 
L 293.138258 38.760296 
L 296.735835 38.05558 
L 299.753936 37.420868 
L 312.075838 35.92743 
L 319.842419 35.316053 
L 328.357489 34.956695 
L 337.854448 34.765348 
L 355.464064 34.639339 
L 388.8 34.56 
L 388.8 34.56 
" style="fill:none;stroke:#dd8452;stroke-linecap:round;stroke-width:1.5;"/>
   </g>
   <g id="line2d_3">
    <path clip-path="url(#p22f410941b)" d="M 54 252 
L 54.101817 104.472193 
L 54.439851 49.930508 
L 54.83083 40.77361 
L 54.859339 40.482914 
L 54.989665 38.920428 
L 55.523188 36.631203 
L 56.036348 35.831791 
L 56.223692 35.541096 
L 56.370309 35.432086 
L 56.712415 35.105053 
L 57.262229 34.814358 
L 57.59619 34.705348 
L 60.341187 34.596337 
L 62.674841 34.56 
L 388.8 34.56 
L 388.8 34.56 
" style="fill:none;stroke:#55a868;stroke-linecap:round;stroke-width:1.5;"/>
   </g>
   <g id="line2d_4">
    <path clip-path="url(#p22f410941b)" d="M 54 252 
L 54.109525 249.810325 
L 54.389423 246.08001 
L 55.734148 237.65566 
L 56.890246 232.817396 
L 57.948989 229.998353 
L 59.476255 225.415769 
L 62.701161 217.758461 
L 64.155411 214.959086 
L 68.840652 205.557905 
L 70.520037 201.873481 
L 74.225637 195.592916 
L 75.734649 193.167228 
L 76.665613 191.856045 
L 79.28813 187.725819 
L 82.123614 183.326801 
L 87.916275 174.797557 
L 89.723439 171.853951 
L 90.690911 170.582104 
L 92.759719 167.468045 
L 95.035407 164.209755 
L 97.347604 160.892463 
L 99.56853 157.588282 
L 100.797645 156.145981 
L 108.853825 144.941924 
L 111.348563 141.965539 
L 114.962892 137.350176 
L 118.69283 132.570914 
L 123.511935 126.237902 
L 125.97625 123.254961 
L 128.513582 119.963892 
L 129.602748 118.338025 
L 132.121825 115.610765 
L 139.654719 107.560103 
L 142.082525 104.81973 
L 144.534671 102.158029 
L 145.629922 100.800955 
L 151.641633 94.894077 
L 155.377657 91.380107 
L 156.53984 90.068924 
L 160.075067 86.541842 
L 162.636737 84.496397 
L 167.437588 80.549737 
L 172.262777 77.042323 
L 175.864936 74.393734 
L 177.01495 73.443126 
L 179.60096 71.78448 
L 181.925326 70.020939 
L 184.018472 68.349181 
L 186.300245 66.900324 
L 187.334649 66.113614 
L 191.886026 63.602699 
L 194.289493 62.586532 
L 200.75756 58.862773 
L 203.039333 57.787603 
L 204.110245 57.171347 
L 211.673562 53.886835 
L 212.659288 53.388585 
L 216.328379 52.175741 
L 218.817033 51.526705 
L 224.792236 49.645158 
L 233.706363 47.304697 
L 243.898283 44.983903 
L 255.854773 42.990905 
L 263.685819 41.869844 
L 267.823434 41.306036 
L 274.315839 40.47999 
L 281.319361 39.653945 
L 288.96178 38.873791 
L 294.279832 38.427989 
L 301.843149 37.615056 
L 312.984287 36.743119 
L 323.912458 35.976077 
L 331.360166 35.556499 
L 338.144638 35.156588 
L 350.06462 34.802569 
L 380.52477 34.566556 
L 388.8 34.56 
L 388.8 34.56 
" style="fill:none;stroke:#c44e52;stroke-linecap:round;stroke-width:1.5;"/>
   </g>
   <g id="line2d_5">
    <path clip-path="url(#p22f410941b)" d="M 54 252 
L 54.105032 238.831307 
L 54.407475 227.531528 
L 54.983254 213.66754 
L 56.213271 194.593769 
L 56.797909 188.668967 
L 57.740669 181.397954 
L 58.389845 177.29522 
L 59.255412 172.302409 
L 61.195346 163.995851 
L 64.410854 151.971189 
L 65.324508 149.165353 
L 66.739281 145.168639 
L 67.821241 141.928859 
L 71.632775 131.516691 
L 73.892868 125.875431 
L 76.759111 119.166572 
L 79.184978 113.739818 
L 87.643243 96.091156 
L 89.322495 93.107797 
L 92.211516 88.006501 
L 94.955011 82.89041 
L 99.467604 75.614467 
L 101.18735 72.749456 
L 103.999179 68.51358 
L 106.73255 64.800408 
L 114.434076 54.7063 
L 116.425894 52.691917 
L 117.848259 51.397485 
L 121.342166 47.881559 
L 126.06862 44.215233 
L 129.433451 42.188522 
L 133.689158 40.154414 
L 136.952752 39.074487 
L 143.053485 37.437338 
L 150.460161 36.081266 
L 161.930196 34.907648 
L 166.566803 34.74985 
L 176.029836 34.636433 
L 211.2106 34.569862 
L 388.8 34.56 
L 388.8 34.56 
" style="fill:none;stroke:#c44e52;stroke-dasharray:5.55,2.4;stroke-dashoffset:0;stroke-width:1.5;"/>
   </g>
   <g id="line2d_6">
    <path clip-path="url(#p22f410941b)" d="M 54 250.101594 
L 54.179618 170.155713 
L 54.37876 156.706408 
L 54.863411 145.777354 
L 55.081612 143.254903 
L 55.253421 141.529377 
L 55.5658 139.57807 
L 55.808277 138.216725 
L 56.167129 136.546403 
L 56.49249 135.01097 
L 56.973068 133.105309 
L 58.521686 129.010631 
L 59.993772 125.769261 
L 60.474151 124.817855 
L 61.356119 123.136768 
L 61.967788 121.977156 
L 63.006015 120.207327 
L 64.155411 118.429805 
L 66.668404 114.928626 
L 68.840652 112.274616 
L 71.207611 109.595834 
L 75.734649 105.377368 
L 79.400341 102.623628 
L 83.030238 99.98148 
L 85.026029 98.715245 
L 86.973764 97.413413 
L 91.682722 94.227327 
L 103.480766 87.396683 
L 111.348563 83.122823 
L 130.795355 73.612293 
L 148.140619 66.388338 
L 156.712027 63.106178 
L 163.951039 60.58625 
L 167.437588 59.439898 
L 191.886026 52.239703 
L 195.390829 51.439691 
L 206.546917 48.708468 
L 213.882318 47.114837 
L 221.208331 45.777041 
L 236.608778 43.135283 
L 246.675593 41.589738 
L 257.758061 40.129119 
L 273.267079 38.426667 
L 281.419976 37.57765 
L 293.138258 36.61091 
L 312.075838 35.474364 
L 323.4239 35.065405 
L 342.781201 34.706654 
L 365.446813 34.591894 
L 388.8 34.56 
L 388.8 34.56 
" style="fill:none;stroke:#c44e52;stroke-dasharray:5.55,2.4;stroke-dashoffset:0;stroke-width:1.5;"/>
   </g>
   <g id="line2d_7">
    <path clip-path="url(#p22f410941b)" d="M 54 252 
L 388.8 34.56 
" style="fill:none;stroke:#111111;stroke-dasharray:1.5,2.475;stroke-dashoffset:0;stroke-width:1.5;"/>
   </g>
   <g id="patch_3">
    <path d="M 54 252 
L 54 34.56 
" style="fill:none;stroke:#262626;stroke-linecap:square;stroke-linejoin:miter;stroke-width:1.25;"/>
   </g>
   <g id="patch_4">
    <path d="M 388.8 252 
L 388.8 34.56 
" style="fill:none;stroke:#262626;stroke-linecap:square;stroke-linejoin:miter;stroke-width:1.25;"/>
   </g>
   <g id="patch_5">
    <path d="M 54 252 
L 388.8 252 
" style="fill:none;stroke:#262626;stroke-linecap:square;stroke-linejoin:miter;stroke-width:1.25;"/>
   </g>
   <g id="patch_6">
    <path d="M 54 34.56 
L 388.8 34.56 
" style="fill:none;stroke:#262626;stroke-linecap:square;stroke-linejoin:miter;stroke-width:1.25;"/>
   </g>
   <g id="text_15">
    <!-- ROC Curves for ClassificationReport -->
    <defs>
     <path d="M 4.828125 34.859375 
Q 4.828125 52.6875 14.390625 62.765625 
Q 23.96875 72.859375 39.109375 72.859375 
Q 49.03125 72.859375 56.984375 68.109375 
Q 64.9375 63.375 69.109375 54.90625 
Q 73.296875 46.4375 73.296875 35.6875 
Q 73.296875 24.8125 68.890625 16.21875 
Q 64.5 7.625 56.4375 3.203125 
Q 48.390625 -1.21875 39.0625 -1.21875 
Q 28.953125 -1.21875 20.984375 3.65625 
Q 13.03125 8.546875 8.921875 16.984375 
Q 4.828125 25.4375 4.828125 34.859375 
z
M 14.59375 34.71875 
Q 14.59375 21.78125 21.546875 14.328125 
Q 28.515625 6.890625 39.015625 6.890625 
Q 49.703125 6.890625 56.609375 14.40625 
Q 63.53125 21.921875 63.53125 35.75 
Q 63.53125 44.484375 60.578125 51 
Q 57.625 57.515625 51.921875 61.109375 
Q 46.234375 64.703125 39.15625 64.703125 
Q 29.109375 64.703125 21.84375 57.78125 
Q 14.59375 50.875 14.59375 34.71875 
z
" id="ArialMT-79"/>
     <path d="M 58.796875 25.09375 
L 68.265625 22.703125 
Q 65.28125 11.03125 57.546875 4.90625 
Q 49.8125 -1.21875 38.625 -1.21875 
Q 27.046875 -1.21875 19.796875 3.484375 
Q 12.546875 8.203125 8.765625 17.140625 
Q 4.984375 26.078125 4.984375 36.328125 
Q 4.984375 47.515625 9.25 55.828125 
Q 13.53125 64.15625 21.40625 68.46875 
Q 29.296875 72.796875 38.765625 72.796875 
Q 49.515625 72.796875 56.828125 67.328125 
Q 64.15625 61.859375 67.046875 51.953125 
L 57.71875 49.75 
Q 55.21875 57.5625 50.484375 61.125 
Q 45.75 64.703125 38.578125 64.703125 
Q 30.328125 64.703125 24.78125 60.734375 
Q 19.234375 56.78125 16.984375 50.109375 
Q 14.75 43.453125 14.75 36.375 
Q 14.75 27.25 17.40625 20.4375 
Q 20.0625 13.625 25.671875 10.25 
Q 31.296875 6.890625 37.84375 6.890625 
Q 45.796875 6.890625 51.3125 11.46875 
Q 56.84375 16.0625 58.796875 25.09375 
z
" id="ArialMT-67"/>
     <path d="M 8.6875 0 
L 8.6875 45.015625 
L 0.921875 45.015625 
L 0.921875 51.859375 
L 8.6875 51.859375 
L 8.6875 57.375 
Q 8.6875 62.59375 9.625 65.140625 
Q 10.890625 68.5625 14.078125 70.671875 
Q 17.28125 72.796875 23.046875 72.796875 
Q 26.765625 72.796875 31.25 71.921875 
L 29.9375 64.265625 
Q 27.203125 64.75 24.75 64.75 
Q 20.75 64.75 19.09375 63.03125 
Q 17.4375 61.328125 17.4375 56.640625 
L 17.4375 51.859375 
L 27.546875 51.859375 
L 27.546875 45.015625 
L 17.4375 45.015625 
L 17.4375 0 
z
" id="ArialMT-102"/>
     <path d="M 40.4375 19 
L 49.078125 17.875 
Q 47.65625 8.9375 41.8125 3.875 
Q 35.984375 -1.171875 27.484375 -1.171875 
Q 16.84375 -1.171875 10.375 5.78125 
Q 3.90625 12.75 3.90625 25.734375 
Q 3.90625 34.125 6.6875 40.421875 
Q 9.46875 46.734375 15.15625 49.875 
Q 20.84375 53.03125 27.546875 53.03125 
Q 35.984375 53.03125 41.359375 48.75 
Q 46.734375 44.484375 48.25 36.625 
L 39.703125 35.296875 
Q 38.484375 40.53125 35.375 43.15625 
Q 32.28125 45.796875 27.875 45.796875 
Q 21.234375 45.796875 17.078125 41.03125 
Q 12.9375 36.28125 12.9375 25.984375 
Q 12.9375 15.53125 16.9375 10.796875 
Q 20.953125 6.0625 27.390625 6.0625 
Q 32.5625 6.0625 36.03125 9.234375 
Q 39.5 12.40625 40.4375 19 
z
" id="ArialMT-99"/>
     <path d="M 6.59375 0 
L 6.59375 51.859375 
L 14.5 51.859375 
L 14.5 44.484375 
Q 20.21875 53.03125 31 53.03125 
Q 35.6875 53.03125 39.625 51.34375 
Q 43.5625 49.65625 45.515625 46.921875 
Q 47.46875 44.1875 48.25 40.4375 
Q 48.734375 37.984375 48.734375 31.890625 
L 48.734375 0 
L 39.9375 0 
L 39.9375 31.546875 
Q 39.9375 36.921875 38.90625 39.578125 
Q 37.890625 42.234375 35.28125 43.8125 
Q 32.671875 45.40625 29.15625 45.40625 
Q 23.53125 45.40625 19.453125 41.84375 
Q 15.375 38.28125 15.375 28.328125 
L 15.375 0 
z
" id="ArialMT-110"/>
     <path d="M 6.59375 -19.875 
L 6.59375 51.859375 
L 14.59375 51.859375 
L 14.59375 45.125 
Q 17.4375 49.078125 21 51.046875 
Q 24.5625 53.03125 29.640625 53.03125 
Q 36.28125 53.03125 41.359375 49.609375 
Q 46.4375 46.1875 49.015625 39.953125 
Q 51.609375 33.734375 51.609375 26.3125 
Q 51.609375 18.359375 48.75 11.984375 
Q 45.90625 5.609375 40.453125 2.21875 
Q 35.015625 -1.171875 29 -1.171875 
Q 24.609375 -1.171875 21.109375 0.6875 
Q 17.625 2.546875 15.375 5.375 
L 15.375 -19.875 
z
M 14.546875 25.640625 
Q 14.546875 15.625 18.59375 10.84375 
Q 22.65625 6.0625 28.421875 6.0625 
Q 34.28125 6.0625 38.453125 11.015625 
Q 42.625 15.96875 42.625 26.375 
Q 42.625 36.28125 38.546875 41.203125 
Q 34.46875 46.140625 28.8125 46.140625 
Q 23.1875 46.140625 18.859375 40.890625 
Q 14.546875 35.640625 14.546875 25.640625 
z
" id="ArialMT-112"/>
    </defs>
    <g style="fill:#262626;" transform="translate(123.707813 28.56)scale(0.12 -0.12)">
     <use xlink:href="#ArialMT-82"/>
     <use x="72.216797" xlink:href="#ArialMT-79"/>
     <use x="150" xlink:href="#ArialMT-67"/>
     <use x="222.216797" xlink:href="#ArialMT-32"/>
     <use x="250" xlink:href="#ArialMT-67"/>
     <use x="322.216797" xlink:href="#ArialMT-117"/>
     <use x="377.832031" xlink:href="#ArialMT-114"/>
     <use x="411.132812" xlink:href="#ArialMT-118"/>
     <use x="461.132812" xlink:href="#ArialMT-101"/>
     <use x="516.748047" xlink:href="#ArialMT-115"/>
     <use x="566.748047" xlink:href="#ArialMT-32"/>
     <use x="594.53125" xlink:href="#ArialMT-102"/>
     <use x="622.314453" xlink:href="#ArialMT-111"/>
     <use x="677.929688" xlink:href="#ArialMT-114"/>
     <use x="711.230469" xlink:href="#ArialMT-32"/>
     <use x="739.013672" xlink:href="#ArialMT-67"/>
     <use x="811.230469" xlink:href="#ArialMT-108"/>
     <use x="833.447266" xlink:href="#ArialMT-97"/>
     <use x="889.0625" xlink:href="#ArialMT-115"/>
     <use x="939.0625" xlink:href="#ArialMT-115"/>
     <use x="989.0625" xlink:href="#ArialMT-105"/>
     <use x="1011.279297" xlink:href="#ArialMT-102"/>
     <use x="1039.0625" xlink:href="#ArialMT-105"/>
     <use x="1061.279297" xlink:href="#ArialMT-99"/>
     <use x="1111.279297" xlink:href="#ArialMT-97"/>
     <use x="1166.894531" xlink:href="#ArialMT-116"/>
     <use x="1194.677734" xlink:href="#ArialMT-105"/>
     <use x="1216.894531" xlink:href="#ArialMT-111"/>
     <use x="1272.509766" xlink:href="#ArialMT-110"/>
     <use x="1328.125" xlink:href="#ArialMT-82"/>
     <use x="1400.341797" xlink:href="#ArialMT-101"/>
     <use x="1455.957031" xlink:href="#ArialMT-112"/>
     <use x="1511.572266" xlink:href="#ArialMT-111"/>
     <use x="1567.1875" xlink:href="#ArialMT-114"/>
     <use x="1600.488281" xlink:href="#ArialMT-116"/>
    </g>
   </g>
   <g id="legend_1">
    <g id="patch_7">
     <path d="M 151.205156 246.5 
L 381.1 246.5 
Q 383.3 246.5 383.3 244.3 
L 383.3 150.949531 
Q 383.3 148.749531 381.1 148.749531 
L 151.205156 148.749531 
Q 149.005156 148.749531 149.005156 150.949531 
L 149.005156 244.3 
Q 149.005156 246.5 151.205156 246.5 
z
" style="fill:#ffffff;opacity:0.8;stroke:#cccccc;stroke-linejoin:miter;"/>
    </g>
    <g id="line2d_8">
     <path d="M 153.405156 157.314063 
L 175.405156 157.314063 
" style="fill:none;stroke:#4c72b0;stroke-linecap:round;stroke-width:1.5;"/>
    </g>
    <g id="line2d_9"/>
    <g id="text_16">
     <!-- ROC of class field_goal, AUC = 1.00 -->
     <defs>
      <path d="M 40.234375 0 
L 40.234375 6.546875 
Q 35.296875 -1.171875 25.734375 -1.171875 
Q 19.53125 -1.171875 14.328125 2.25 
Q 9.125 5.671875 6.265625 11.796875 
Q 3.421875 17.921875 3.421875 25.875 
Q 3.421875 33.640625 6 39.96875 
Q 8.59375 46.296875 13.765625 49.65625 
Q 18.953125 53.03125 25.34375 53.03125 
Q 30.03125 53.03125 33.6875 51.046875 
Q 37.359375 49.078125 39.65625 45.90625 
L 39.65625 71.578125 
L 48.390625 71.578125 
L 48.390625 0 
z
M 12.453125 25.875 
Q 12.453125 15.921875 16.640625 10.984375 
Q 20.84375 6.0625 26.5625 6.0625 
Q 32.328125 6.0625 36.34375 10.765625 
Q 40.375 15.484375 40.375 25.140625 
Q 40.375 35.796875 36.265625 40.765625 
Q 32.171875 45.75 26.171875 45.75 
Q 20.3125 45.75 16.375 40.96875 
Q 12.453125 36.1875 12.453125 25.875 
z
" id="ArialMT-100"/>
      <path d="M -1.515625 -19.875 
L -1.515625 -13.53125 
L 56.734375 -13.53125 
L 56.734375 -19.875 
z
" id="ArialMT-95"/>
      <path d="M 4.984375 -4.296875 
L 13.53125 -5.5625 
Q 14.0625 -9.515625 16.5 -11.328125 
Q 19.78125 -13.765625 25.4375 -13.765625 
Q 31.546875 -13.765625 34.859375 -11.328125 
Q 38.1875 -8.890625 39.359375 -4.5 
Q 40.046875 -1.8125 39.984375 6.78125 
Q 34.234375 0 25.640625 0 
Q 14.9375 0 9.078125 7.71875 
Q 3.21875 15.4375 3.21875 26.21875 
Q 3.21875 33.640625 5.90625 39.90625 
Q 8.59375 46.1875 13.6875 49.609375 
Q 18.796875 53.03125 25.6875 53.03125 
Q 34.859375 53.03125 40.828125 45.609375 
L 40.828125 51.859375 
L 48.921875 51.859375 
L 48.921875 7.03125 
Q 48.921875 -5.078125 46.453125 -10.125 
Q 44 -15.1875 38.640625 -18.109375 
Q 33.296875 -21.046875 25.484375 -21.046875 
Q 16.21875 -21.046875 10.5 -16.875 
Q 4.78125 -12.703125 4.984375 -4.296875 
z
M 12.25 26.859375 
Q 12.25 16.65625 16.296875 11.96875 
Q 20.359375 7.28125 26.46875 7.28125 
Q 32.515625 7.28125 36.609375 11.9375 
Q 40.71875 16.609375 40.71875 26.5625 
Q 40.71875 36.078125 36.5 40.90625 
Q 32.28125 45.75 26.3125 45.75 
Q 20.453125 45.75 16.34375 40.984375 
Q 12.25 36.234375 12.25 26.859375 
z
" id="ArialMT-103"/>
      <path d="M 8.890625 0 
L 8.890625 10.015625 
L 18.890625 10.015625 
L 18.890625 0 
Q 18.890625 -5.515625 16.9375 -8.90625 
Q 14.984375 -12.3125 10.75 -14.15625 
L 8.296875 -10.40625 
Q 11.078125 -9.1875 12.390625 -6.8125 
Q 13.71875 -4.4375 13.875 0 
z
" id="ArialMT-44"/>
      <path d="M -0.140625 0 
L 27.34375 71.578125 
L 37.546875 71.578125 
L 66.84375 0 
L 56.0625 0 
L 47.703125 21.6875 
L 17.78125 21.6875 
L 9.90625 0 
z
M 20.515625 29.390625 
L 44.78125 29.390625 
L 37.3125 49.21875 
Q 33.890625 58.25 32.234375 64.0625 
Q 30.859375 57.171875 28.375 50.390625 
z
" id="ArialMT-65"/>
      <path d="M 54.6875 71.578125 
L 64.15625 71.578125 
L 64.15625 30.21875 
Q 64.15625 19.4375 61.71875 13.078125 
Q 59.28125 6.734375 52.90625 2.75 
Q 46.53125 -1.21875 36.1875 -1.21875 
Q 26.125 -1.21875 19.71875 2.25 
Q 13.328125 5.71875 10.59375 12.28125 
Q 7.859375 18.84375 7.859375 30.21875 
L 7.859375 71.578125 
L 17.328125 71.578125 
L 17.328125 30.28125 
Q 17.328125 20.953125 19.0625 16.53125 
Q 20.796875 12.109375 25.015625 9.71875 
Q 29.25 7.328125 35.359375 7.328125 
Q 45.796875 7.328125 50.234375 12.0625 
Q 54.6875 16.796875 54.6875 30.28125 
z
" id="ArialMT-85"/>
      <path d="M 52.828125 42.09375 
L 5.5625 42.09375 
L 5.5625 50.296875 
L 52.828125 50.296875 
z
M 52.828125 20.359375 
L 5.5625 20.359375 
L 5.5625 28.5625 
L 52.828125 28.5625 
z
" id="ArialMT-61"/>
     </defs>
     <g style="fill:#262626;" transform="translate(184.205156 161.164062)scale(0.11 -0.11)">
      <use xlink:href="#ArialMT-82"/>
      <use x="72.216797" xlink:href="#ArialMT-79"/>
      <use x="150" xlink:href="#ArialMT-67"/>
      <use x="222.216797" xlink:href="#ArialMT-32"/>
      <use x="250" xlink:href="#ArialMT-111"/>
      <use x="305.615234" xlink:href="#ArialMT-102"/>
      <use x="333.398438" xlink:href="#ArialMT-32"/>
      <use x="361.181641" xlink:href="#ArialMT-99"/>
      <use x="411.181641" xlink:href="#ArialMT-108"/>
      <use x="433.398438" xlink:href="#ArialMT-97"/>
      <use x="489.013672" xlink:href="#ArialMT-115"/>
      <use x="539.013672" xlink:href="#ArialMT-115"/>
      <use x="589.013672" xlink:href="#ArialMT-32"/>
      <use x="616.796875" xlink:href="#ArialMT-102"/>
      <use x="644.580078" xlink:href="#ArialMT-105"/>
      <use x="666.796875" xlink:href="#ArialMT-101"/>
      <use x="722.412109" xlink:href="#ArialMT-108"/>
      <use x="744.628906" xlink:href="#ArialMT-100"/>
      <use x="800.244141" xlink:href="#ArialMT-95"/>
      <use x="855.859375" xlink:href="#ArialMT-103"/>
      <use x="911.474609" xlink:href="#ArialMT-111"/>
      <use x="967.089844" xlink:href="#ArialMT-97"/>
      <use x="1022.705078" xlink:href="#ArialMT-108"/>
      <use x="1044.921875" xlink:href="#ArialMT-44"/>
      <use x="1072.705078" xlink:href="#ArialMT-32"/>
      <use x="1100.410156" xlink:href="#ArialMT-65"/>
      <use x="1167.109375" xlink:href="#ArialMT-85"/>
      <use x="1239.326172" xlink:href="#ArialMT-67"/>
      <use x="1311.542969" xlink:href="#ArialMT-32"/>
      <use x="1339.326172" xlink:href="#ArialMT-61"/>
      <use x="1397.724609" xlink:href="#ArialMT-32"/>
      <use x="1425.507812" xlink:href="#ArialMT-49"/>
      <use x="1481.123047" xlink:href="#ArialMT-46"/>
      <use x="1508.90625" xlink:href="#ArialMT-48"/>
      <use x="1564.521484" xlink:href="#ArialMT-48"/>
     </g>
    </g>
    <g id="line2d_10">
     <path d="M 153.405156 173.14375 
L 175.405156 173.14375 
" style="fill:none;stroke:#dd8452;stroke-linecap:round;stroke-width:1.5;"/>
    </g>
    <g id="line2d_11"/>
    <g id="text_17">
     <!-- ROC of class pass, AUC = 0.80 -->
     <g style="fill:#262626;" transform="translate(184.205156 176.99375)scale(0.11 -0.11)">
      <use xlink:href="#ArialMT-82"/>
      <use x="72.216797" xlink:href="#ArialMT-79"/>
      <use x="150" xlink:href="#ArialMT-67"/>
      <use x="222.216797" xlink:href="#ArialMT-32"/>
      <use x="250" xlink:href="#ArialMT-111"/>
      <use x="305.615234" xlink:href="#ArialMT-102"/>
      <use x="333.398438" xlink:href="#ArialMT-32"/>
      <use x="361.181641" xlink:href="#ArialMT-99"/>
      <use x="411.181641" xlink:href="#ArialMT-108"/>
      <use x="433.398438" xlink:href="#ArialMT-97"/>
      <use x="489.013672" xlink:href="#ArialMT-115"/>
      <use x="539.013672" xlink:href="#ArialMT-115"/>
      <use x="589.013672" xlink:href="#ArialMT-32"/>
      <use x="616.796875" xlink:href="#ArialMT-112"/>
      <use x="672.412109" xlink:href="#ArialMT-97"/>
      <use x="728.027344" xlink:href="#ArialMT-115"/>
      <use x="778.027344" xlink:href="#ArialMT-115"/>
      <use x="828.027344" xlink:href="#ArialMT-44"/>
      <use x="855.810547" xlink:href="#ArialMT-32"/>
      <use x="883.515625" xlink:href="#ArialMT-65"/>
      <use x="950.214844" xlink:href="#ArialMT-85"/>
      <use x="1022.431641" xlink:href="#ArialMT-67"/>
      <use x="1094.648438" xlink:href="#ArialMT-32"/>
      <use x="1122.431641" xlink:href="#ArialMT-61"/>
      <use x="1180.830078" xlink:href="#ArialMT-32"/>
      <use x="1208.613281" xlink:href="#ArialMT-48"/>
      <use x="1264.228516" xlink:href="#ArialMT-46"/>
      <use x="1292.011719" xlink:href="#ArialMT-56"/>
      <use x="1347.626953" xlink:href="#ArialMT-48"/>
     </g>
    </g>
    <g id="line2d_12">
     <path d="M 153.405156 188.844531 
L 175.405156 188.844531 
" style="fill:none;stroke:#55a868;stroke-linecap:round;stroke-width:1.5;"/>
    </g>
    <g id="line2d_13"/>
    <g id="text_18">
     <!-- ROC of class punt, AUC = 1.00 -->
     <g style="fill:#262626;" transform="translate(184.205156 192.694531)scale(0.11 -0.11)">
      <use xlink:href="#ArialMT-82"/>
      <use x="72.216797" xlink:href="#ArialMT-79"/>
      <use x="150" xlink:href="#ArialMT-67"/>
      <use x="222.216797" xlink:href="#ArialMT-32"/>
      <use x="250" xlink:href="#ArialMT-111"/>
      <use x="305.615234" xlink:href="#ArialMT-102"/>
      <use x="333.398438" xlink:href="#ArialMT-32"/>
      <use x="361.181641" xlink:href="#ArialMT-99"/>
      <use x="411.181641" xlink:href="#ArialMT-108"/>
      <use x="433.398438" xlink:href="#ArialMT-97"/>
      <use x="489.013672" xlink:href="#ArialMT-115"/>
      <use x="539.013672" xlink:href="#ArialMT-115"/>
      <use x="589.013672" xlink:href="#ArialMT-32"/>
      <use x="616.796875" xlink:href="#ArialMT-112"/>
      <use x="672.412109" xlink:href="#ArialMT-117"/>
      <use x="728.027344" xlink:href="#ArialMT-110"/>
      <use x="783.642578" xlink:href="#ArialMT-116"/>
      <use x="811.425781" xlink:href="#ArialMT-44"/>
      <use x="839.208984" xlink:href="#ArialMT-32"/>
      <use x="866.914062" xlink:href="#ArialMT-65"/>
      <use x="933.613281" xlink:href="#ArialMT-85"/>
      <use x="1005.830078" xlink:href="#ArialMT-67"/>
      <use x="1078.046875" xlink:href="#ArialMT-32"/>
      <use x="1105.830078" xlink:href="#ArialMT-61"/>
      <use x="1164.228516" xlink:href="#ArialMT-32"/>
      <use x="1192.011719" xlink:href="#ArialMT-49"/>
      <use x="1247.626953" xlink:href="#ArialMT-46"/>
      <use x="1275.410156" xlink:href="#ArialMT-48"/>
      <use x="1331.025391" xlink:href="#ArialMT-48"/>
     </g>
    </g>
    <g id="line2d_14">
     <path d="M 153.405156 204.404375 
L 175.405156 204.404375 
" style="fill:none;stroke:#c44e52;stroke-linecap:round;stroke-width:1.5;"/>
    </g>
    <g id="line2d_15"/>
    <g id="text_19">
     <!-- ROC of class run, AUC = 0.79 -->
     <defs>
      <path d="M 4.734375 62.203125 
L 4.734375 70.65625 
L 51.078125 70.65625 
L 51.078125 63.8125 
Q 44.234375 56.546875 37.515625 44.484375 
Q 30.8125 32.421875 27.15625 19.671875 
Q 24.515625 10.6875 23.78125 0 
L 14.75 0 
Q 14.890625 8.453125 18.0625 20.40625 
Q 21.234375 32.375 27.171875 43.484375 
Q 33.109375 54.59375 39.796875 62.203125 
z
" id="ArialMT-55"/>
      <path d="M 5.46875 16.546875 
L 13.921875 17.328125 
Q 14.984375 11.375 18.015625 8.6875 
Q 21.046875 6 25.78125 6 
Q 29.828125 6 32.875 7.859375 
Q 35.9375 9.71875 37.890625 12.8125 
Q 39.84375 15.921875 41.15625 21.1875 
Q 42.484375 26.46875 42.484375 31.9375 
Q 42.484375 32.515625 42.4375 33.6875 
Q 39.796875 29.5 35.234375 26.875 
Q 30.671875 24.265625 25.34375 24.265625 
Q 16.453125 24.265625 10.296875 30.703125 
Q 4.15625 37.15625 4.15625 47.703125 
Q 4.15625 58.59375 10.578125 65.234375 
Q 17 71.875 26.65625 71.875 
Q 33.640625 71.875 39.421875 68.109375 
Q 45.21875 64.359375 48.21875 57.390625 
Q 51.21875 50.4375 51.21875 37.25 
Q 51.21875 23.53125 48.234375 15.40625 
Q 45.265625 7.28125 39.375 3.03125 
Q 33.5 -1.21875 25.59375 -1.21875 
Q 17.1875 -1.21875 11.859375 3.4375 
Q 6.546875 8.109375 5.46875 16.546875 
z
M 41.453125 48.140625 
Q 41.453125 55.71875 37.421875 60.15625 
Q 33.40625 64.59375 27.734375 64.59375 
Q 21.875 64.59375 17.53125 59.8125 
Q 13.1875 55.03125 13.1875 47.40625 
Q 13.1875 40.578125 17.3125 36.296875 
Q 21.4375 32.03125 27.484375 32.03125 
Q 33.59375 32.03125 37.515625 36.296875 
Q 41.453125 40.578125 41.453125 48.140625 
z
" id="ArialMT-57"/>
     </defs>
     <g style="fill:#262626;" transform="translate(184.205156 208.254375)scale(0.11 -0.11)">
      <use xlink:href="#ArialMT-82"/>
      <use x="72.216797" xlink:href="#ArialMT-79"/>
      <use x="150" xlink:href="#ArialMT-67"/>
      <use x="222.216797" xlink:href="#ArialMT-32"/>
      <use x="250" xlink:href="#ArialMT-111"/>
      <use x="305.615234" xlink:href="#ArialMT-102"/>
      <use x="333.398438" xlink:href="#ArialMT-32"/>
      <use x="361.181641" xlink:href="#ArialMT-99"/>
      <use x="411.181641" xlink:href="#ArialMT-108"/>
      <use x="433.398438" xlink:href="#ArialMT-97"/>
      <use x="489.013672" xlink:href="#ArialMT-115"/>
      <use x="539.013672" xlink:href="#ArialMT-115"/>
      <use x="589.013672" xlink:href="#ArialMT-32"/>
      <use x="616.796875" xlink:href="#ArialMT-114"/>
      <use x="650.097656" xlink:href="#ArialMT-117"/>
      <use x="705.712891" xlink:href="#ArialMT-110"/>
      <use x="761.328125" xlink:href="#ArialMT-44"/>
      <use x="789.111328" xlink:href="#ArialMT-32"/>
      <use x="816.816406" xlink:href="#ArialMT-65"/>
      <use x="883.515625" xlink:href="#ArialMT-85"/>
      <use x="955.732422" xlink:href="#ArialMT-67"/>
      <use x="1027.949219" xlink:href="#ArialMT-32"/>
      <use x="1055.732422" xlink:href="#ArialMT-61"/>
      <use x="1114.130859" xlink:href="#ArialMT-32"/>
      <use x="1141.914062" xlink:href="#ArialMT-48"/>
      <use x="1197.529297" xlink:href="#ArialMT-46"/>
      <use x="1225.3125" xlink:href="#ArialMT-55"/>
      <use x="1280.927734" xlink:href="#ArialMT-57"/>
     </g>
    </g>
    <g id="line2d_16">
     <path d="M 153.405156 220.105156 
L 175.405156 220.105156 
" style="fill:none;stroke:#c44e52;stroke-dasharray:5.55,2.4;stroke-dashoffset:0;stroke-width:1.5;"/>
    </g>
    <g id="line2d_17"/>
    <g id="text_20">
     <!-- micro-average ROC curve, AUC = 0.93 -->
     <defs>
      <path d="M 6.59375 0 
L 6.59375 51.859375 
L 14.453125 51.859375 
L 14.453125 44.578125 
Q 16.890625 48.390625 20.9375 50.703125 
Q 25 53.03125 30.171875 53.03125 
Q 35.9375 53.03125 39.625 50.640625 
Q 43.3125 48.25 44.828125 43.953125 
Q 50.984375 53.03125 60.84375 53.03125 
Q 68.5625 53.03125 72.703125 48.75 
Q 76.859375 44.484375 76.859375 35.59375 
L 76.859375 0 
L 68.109375 0 
L 68.109375 32.671875 
Q 68.109375 37.9375 67.25 40.25 
Q 66.40625 42.578125 64.15625 43.984375 
Q 61.921875 45.40625 58.890625 45.40625 
Q 53.421875 45.40625 49.796875 41.765625 
Q 46.1875 38.140625 46.1875 30.125 
L 46.1875 0 
L 37.40625 0 
L 37.40625 33.6875 
Q 37.40625 39.546875 35.25 42.46875 
Q 33.109375 45.40625 28.21875 45.40625 
Q 24.515625 45.40625 21.359375 43.453125 
Q 18.21875 41.5 16.796875 37.734375 
Q 15.375 33.984375 15.375 26.90625 
L 15.375 0 
z
" id="ArialMT-109"/>
      <path d="M 3.171875 21.484375 
L 3.171875 30.328125 
L 30.171875 30.328125 
L 30.171875 21.484375 
z
" id="ArialMT-45"/>
      <path d="M 4.203125 18.890625 
L 12.984375 20.0625 
Q 14.5 12.59375 18.140625 9.296875 
Q 21.78125 6 27 6 
Q 33.203125 6 37.46875 10.296875 
Q 41.75 14.59375 41.75 20.953125 
Q 41.75 27 37.796875 30.921875 
Q 33.84375 34.859375 27.734375 34.859375 
Q 25.25 34.859375 21.53125 33.890625 
L 22.515625 41.609375 
Q 23.390625 41.5 23.921875 41.5 
Q 29.546875 41.5 34.03125 44.421875 
Q 38.53125 47.359375 38.53125 53.46875 
Q 38.53125 58.296875 35.25 61.46875 
Q 31.984375 64.65625 26.8125 64.65625 
Q 21.6875 64.65625 18.265625 61.421875 
Q 14.84375 58.203125 13.875 51.765625 
L 5.078125 53.328125 
Q 6.6875 62.15625 12.390625 67.015625 
Q 18.109375 71.875 26.609375 71.875 
Q 32.46875 71.875 37.390625 69.359375 
Q 42.328125 66.84375 44.9375 62.5 
Q 47.5625 58.15625 47.5625 53.265625 
Q 47.5625 48.640625 45.0625 44.828125 
Q 42.578125 41.015625 37.703125 38.765625 
Q 44.046875 37.3125 47.5625 32.6875 
Q 51.078125 28.078125 51.078125 21.140625 
Q 51.078125 11.765625 44.234375 5.25 
Q 37.40625 -1.265625 26.953125 -1.265625 
Q 17.53125 -1.265625 11.296875 4.34375 
Q 5.078125 9.96875 4.203125 18.890625 
z
" id="ArialMT-51"/>
     </defs>
     <g style="fill:#262626;" transform="translate(184.205156 223.955156)scale(0.11 -0.11)">
      <use xlink:href="#ArialMT-109"/>
      <use x="83.300781" xlink:href="#ArialMT-105"/>
      <use x="105.517578" xlink:href="#ArialMT-99"/>
      <use x="155.517578" xlink:href="#ArialMT-114"/>
      <use x="188.818359" xlink:href="#ArialMT-111"/>
      <use x="244.433594" xlink:href="#ArialMT-45"/>
      <use x="277.734375" xlink:href="#ArialMT-97"/>
      <use x="333.349609" xlink:href="#ArialMT-118"/>
      <use x="383.349609" xlink:href="#ArialMT-101"/>
      <use x="438.964844" xlink:href="#ArialMT-114"/>
      <use x="472.265625" xlink:href="#ArialMT-97"/>
      <use x="527.880859" xlink:href="#ArialMT-103"/>
      <use x="583.496094" xlink:href="#ArialMT-101"/>
      <use x="639.111328" xlink:href="#ArialMT-32"/>
      <use x="666.894531" xlink:href="#ArialMT-82"/>
      <use x="739.111328" xlink:href="#ArialMT-79"/>
      <use x="816.894531" xlink:href="#ArialMT-67"/>
      <use x="889.111328" xlink:href="#ArialMT-32"/>
      <use x="916.894531" xlink:href="#ArialMT-99"/>
      <use x="966.894531" xlink:href="#ArialMT-117"/>
      <use x="1022.509766" xlink:href="#ArialMT-114"/>
      <use x="1055.810547" xlink:href="#ArialMT-118"/>
      <use x="1105.810547" xlink:href="#ArialMT-101"/>
      <use x="1161.425781" xlink:href="#ArialMT-44"/>
      <use x="1189.208984" xlink:href="#ArialMT-32"/>
      <use x="1216.914062" xlink:href="#ArialMT-65"/>
      <use x="1283.613281" xlink:href="#ArialMT-85"/>
      <use x="1355.830078" xlink:href="#ArialMT-67"/>
      <use x="1428.046875" xlink:href="#ArialMT-32"/>
      <use x="1455.830078" xlink:href="#ArialMT-61"/>
      <use x="1514.228516" xlink:href="#ArialMT-32"/>
      <use x="1542.011719" xlink:href="#ArialMT-48"/>
      <use x="1597.626953" xlink:href="#ArialMT-46"/>
      <use x="1625.410156" xlink:href="#ArialMT-57"/>
      <use x="1681.025391" xlink:href="#ArialMT-51"/>
     </g>
    </g>
    <g id="line2d_18">
     <path d="M 153.405156 235.934844 
L 175.405156 235.934844 
" style="fill:none;stroke:#c44e52;stroke-dasharray:5.55,2.4;stroke-dashoffset:0;stroke-width:1.5;"/>
    </g>
    <g id="line2d_19"/>
    <g id="text_21">
     <!-- macro-average ROC curve, AUC = 0.90 -->
     <g style="fill:#262626;" transform="translate(184.205156 239.784844)scale(0.11 -0.11)">
      <use xlink:href="#ArialMT-109"/>
      <use x="83.300781" xlink:href="#ArialMT-97"/>
      <use x="138.916016" xlink:href="#ArialMT-99"/>
      <use x="188.916016" xlink:href="#ArialMT-114"/>
      <use x="222.216797" xlink:href="#ArialMT-111"/>
      <use x="277.832031" xlink:href="#ArialMT-45"/>
      <use x="311.132812" xlink:href="#ArialMT-97"/>
      <use x="366.748047" xlink:href="#ArialMT-118"/>
      <use x="416.748047" xlink:href="#ArialMT-101"/>
      <use x="472.363281" xlink:href="#ArialMT-114"/>
      <use x="505.664062" xlink:href="#ArialMT-97"/>
      <use x="561.279297" xlink:href="#ArialMT-103"/>
      <use x="616.894531" xlink:href="#ArialMT-101"/>
      <use x="672.509766" xlink:href="#ArialMT-32"/>
      <use x="700.292969" xlink:href="#ArialMT-82"/>
      <use x="772.509766" xlink:href="#ArialMT-79"/>
      <use x="850.292969" xlink:href="#ArialMT-67"/>
      <use x="922.509766" xlink:href="#ArialMT-32"/>
      <use x="950.292969" xlink:href="#ArialMT-99"/>
      <use x="1000.292969" xlink:href="#ArialMT-117"/>
      <use x="1055.908203" xlink:href="#ArialMT-114"/>
      <use x="1089.208984" xlink:href="#ArialMT-118"/>
      <use x="1139.208984" xlink:href="#ArialMT-101"/>
      <use x="1194.824219" xlink:href="#ArialMT-44"/>
      <use x="1222.607422" xlink:href="#ArialMT-32"/>
      <use x="1250.3125" xlink:href="#ArialMT-65"/>
      <use x="1317.011719" xlink:href="#ArialMT-85"/>
      <use x="1389.228516" xlink:href="#ArialMT-67"/>
      <use x="1461.445312" xlink:href="#ArialMT-32"/>
      <use x="1489.228516" xlink:href="#ArialMT-61"/>
      <use x="1547.626953" xlink:href="#ArialMT-32"/>
      <use x="1575.410156" xlink:href="#ArialMT-48"/>
      <use x="1631.025391" xlink:href="#ArialMT-46"/>
      <use x="1658.808594" xlink:href="#ArialMT-57"/>
      <use x="1714.423828" xlink:href="#ArialMT-48"/>
     </g>
    </g>
   </g>
  </g>
 </g>
 <defs>
  <clipPath id="p22f410941b">
   <rect height="217.44" width="334.8" x="54" y="34.56"/>
  </clipPath>
 </defs>
</svg>
